<svg data-v-423bf9ae="" xmlns="http://www.w3.org/2000/svg" viewBox="0 0 272.73890050124305 60" class="font"><!----><!----><!----><g data-v-423bf9ae="" id="d75d1653-0a8d-462b-8be3-6c9d83c4dbed" fill="black" transform="matrix(4.262877500041162,0,0,4.262877500041162,-0.000002542491642998357,-15.133214683457702)"><path d="M2.58 4.35L2.47 8.08L2.47 8.08Q2.95 8.03 3.47 7.98L3.47 7.98L3.47 7.98Q3.99 7.94 4.44 7.94L4.44 7.94L4.44 7.94Q4.57 7.94 4.75 7.93L4.75 7.93L4.75 7.93Q4.90 7.92 5.10 7.92L5.10 7.92L5.10 7.92Q5.30 7.92 5.54 7.92L5.54 7.92L5.54 7.92Q5.80 7.92 6.08 7.92L6.08 7.92L6.08 7.92Q6.36 7.93 6.65 7.94L6.65 7.94L6.65 7.94Q6.68 7.53 6.71 7.10L6.71 7.10L6.71 7.10Q6.73 6.66 6.76 6.25L6.76 6.25L6.76 6.25Q6.78 5.84 6.80 5.50L6.80 5.50L6.80 5.50Q6.82 5.15 6.83 4.92L6.83 4.92L6.83 4.46L6.83 4.46Q6.83 4.27 6.83 4.08L6.83 4.08L6.83 4.08Q6.83 3.89 6.84 3.77L6.84 3.77L6.84 3.77Q6.89 3.55 7.04 3.55L7.04 3.55L7.04 3.55Q7.13 3.55 7.18 3.57L7.18 3.57L7.18 3.57Q7.23 3.59 7.35 3.64L7.35 3.64L7.35 3.64Q7.41 3.66 7.48 3.70L7.48 3.70L7.48 3.70Q7.55 3.73 7.62 3.77L7.62 3.77L7.62 3.77Q7.69 3.81 7.75 3.85L7.75 3.85L7.75 3.85Q7.80 3.88 7.83 3.91L7.83 3.91L7.83 3.91Q7.85 3.94 7.90 4.00L7.90 4.00L7.90 4.00Q7.94 4.07 7.98 4.14L7.98 4.14L7.98 4.14Q8.02 4.22 8.05 4.30L8.05 4.30L8.05 4.30Q8.07 4.38 8.07 4.43L8.07 4.43L8.07 4.43Q8.06 4.48 8.03 4.83L8.03 4.83L8.03 4.83Q8.00 5.17 7.96 5.74L7.96 5.74L7.96 5.74Q7.92 6.30 7.88 7.05L7.88 7.05L7.88 7.05Q7.83 7.79 7.79 8.64L7.79 8.64L7.79 8.64Q7.72 10.01 7.72 10.91L7.72 10.91L7.72 10.91Q7.72 11.59 7.75 12.00L7.75 12.00L7.75 12.00Q7.77 12.42 7.81 12.59L7.81 12.59L7.81 12.59Q7.88 12.88 7.90 13.00L7.90 13.00L7.90 13.00Q7.93 13.13 7.90 13.17L7.90 13.17L7.90 13.17Q7.88 13.18 7.85 13.19L7.85 13.19L7.85 13.19Q7.79 13.22 7.63 13.25L7.63 13.25L7.63 13.25Q7.60 13.32 7.57 13.37L7.57 13.37L7.57 13.37Q7.55 13.41 7.52 13.44L7.52 13.44L7.52 13.44Q7.49 13.47 7.46 13.49L7.46 13.49L7.46 13.49Q7.40 13.51 7.33 13.53L7.33 13.53L7.33 13.53Q7.27 13.55 7.24 13.51L7.24 13.51L7.24 13.51Q7.22 13.51 7.21 13.49L7.21 13.49L7.21 13.49Q7.18 13.48 7.16 13.42L7.16 13.42L7.16 13.42Q7.09 13.45 7.03 13.42L7.03 13.42L7.03 13.42Q7.01 13.41 6.99 13.39L6.99 13.39L6.99 13.39Q6.93 13.34 6.83 13.22L6.83 13.22L6.83 13.22Q6.73 13.10 6.69 12.89L6.69 12.89L6.69 12.89Q6.68 12.78 6.65 12.66L6.65 12.66L6.65 12.66Q6.62 12.54 6.59 12.42L6.59 12.42L6.59 12.42Q6.56 12.29 6.52 12.17L6.52 12.17L6.52 12.17Q6.49 12.05 6.48 11.95L6.48 11.95L6.48 11.95Q6.46 11.85 6.46 11.55L6.46 11.55L6.46 11.55Q6.47 11.24 6.48 10.83L6.48 10.83L6.48 10.83Q6.50 10.42 6.53 9.95L6.53 9.95L6.53 9.95Q6.56 9.49 6.58 9.08L6.58 9.08L6.58 9.08Q6.58 9.02 6.58 8.96L6.58 8.96L6.58 8.96Q6.58 8.90 6.60 8.83L6.60 8.83L6.60 8.83Q6.29 8.81 5.99 8.81L5.99 8.81L5.99 8.81Q5.69 8.81 5.42 8.81L5.42 8.81L5.42 8.81Q5.08 8.81 4.80 8.81L4.80 8.81L4.80 8.81Q4.52 8.82 4.31 8.83L4.31 8.83L4.31 8.83Q4.06 8.83 3.86 8.84L3.86 8.84L3.86 8.84Q3.14 8.84 2.46 8.88L2.46 8.88L2.46 8.88Q2.45 8.98 2.45 9.06L2.45 9.06L2.45 9.06Q2.45 9.13 2.45 9.19L2.45 9.19L2.45 9.29L2.45 9.29Q2.43 9.96 2.42 10.58L2.42 10.58L2.42 10.58Q2.41 11.19 2.40 11.68L2.40 11.68L2.40 11.68Q2.39 12.16 2.39 12.48L2.39 12.48L2.39 12.48Q2.39 12.80 2.39 12.89L2.39 12.89L2.39 12.89Q2.39 12.95 2.39 13.03L2.39 13.03L2.39 13.03Q2.38 13.10 2.36 13.19L2.36 13.19L2.36 13.19Q2.34 13.28 2.31 13.39L2.31 13.39L2.31 13.39Q2.24 13.40 2.18 13.44L2.18 13.44L2.18 13.44Q2.15 13.46 2.13 13.47L2.13 13.47L2.13 13.47Q2.06 13.51 2.01 13.57L2.01 13.57L2.01 13.57Q1.96 13.62 1.92 13.58L1.92 13.58L1.92 13.58Q1.87 13.54 1.79 13.53L1.79 13.53L1.79 13.53Q1.71 13.51 1.59 13.51L1.59 13.51L1.59 13.51Q1.54 13.51 1.48 13.48L1.48 13.48L1.48 13.48Q1.42 13.45 1.36 13.40L1.36 13.40L1.36 13.40Q1.31 13.36 1.26 13.30L1.26 13.30L1.26 13.30Q1.22 13.25 1.22 13.21L1.22 13.21L1.22 13.21Q1.20 13.17 1.18 13.09L1.18 13.09L1.18 13.09Q1.16 13.01 1.15 12.92L1.15 12.92L1.15 12.92Q1.13 12.84 1.11 12.76L1.11 12.76L1.11 12.76Q1.10 12.68 1.09 12.65L1.09 12.65L1.09 12.65Q1.09 12.61 1.09 12.30L1.09 12.30L1.09 12.30Q1.10 12.00 1.12 11.49L1.12 11.49L1.12 11.49Q1.14 10.99 1.17 10.34L1.17 10.34L1.17 10.34Q1.20 9.69 1.23 8.96L1.23 8.96L1.23 8.96Q0.97 8.99 0.79 9.01L0.79 9.01L0.79 9.01Q0.62 9.02 0.57 9.04L0.57 9.04L0.57 9.04Q0.50 9.05 0.45 9.07L0.45 9.07L0.45 9.07Q0.41 9.08 0.38 9.10L0.38 9.10L0.38 9.10Q0.35 9.11 0.32 9.12L0.32 9.12L0.32 9.12Q0.29 9.12 0.27 9.11L0.27 9.11L0.27 9.11Q0.23 9.11 0.19 9.05L0.19 9.05L0.19 9.05Q0.15 9.00 0.14 8.93L0.14 8.93L0.14 8.93Q0.06 8.92 0.04 8.88L0.04 8.88L0.04 8.88Q0.01 8.85 0 8.83L0 8.83L0 8.83Q0 8.77 0.05 8.75L0.05 8.75L0.05 8.75Q0.10 8.72 0.21 8.61L0.21 8.61L0.21 8.61Q0.26 8.57 0.35 8.52L0.35 8.52L0.35 8.52Q0.44 8.48 0.55 8.44L0.55 8.44L0.55 8.44Q0.65 8.39 0.75 8.36L0.75 8.36L0.75 8.36Q0.85 8.33 0.92 8.32L0.92 8.32L1.26 8.26L1.26 8.26Q1.30 7.59 1.34 7.04L1.34 7.04L1.34 7.04Q1.38 6.49 1.42 6.02L1.42 6.02L1.42 6.02Q1.45 5.54 1.47 5.14L1.47 5.14L1.47 5.14Q1.50 4.73 1.50 4.35L1.50 4.35L1.50 4.35Q1.50 4.24 1.49 4.14L1.49 4.14L1.49 4.14Q1.48 4.05 1.48 3.94L1.48 3.94L1.48 3.94Q1.48 3.86 1.53 3.80L1.53 3.80L1.53 3.80Q1.57 3.74 1.64 3.73L1.64 3.73L1.72 3.73L1.72 3.73Q1.80 3.73 2.00 3.75L2.00 3.75L2.00 3.75Q2.03 3.68 2.06 3.66L2.06 3.66L2.06 3.66Q2.08 3.64 2.10 3.64L2.10 3.64L2.10 3.64Q2.15 3.64 2.19 3.67L2.19 3.67L2.19 3.67Q2.23 3.69 2.24 3.71L2.24 3.71L2.24 3.71Q2.24 3.73 2.25 3.74L2.25 3.74L2.25 3.74Q2.26 3.76 2.27 3.80L2.27 3.80L2.27 3.80Q2.32 3.81 2.35 3.83L2.35 3.83L2.35 3.83Q2.38 3.84 2.40 3.86L2.40 3.86L2.40 3.86Q2.42 3.88 2.43 3.88L2.43 3.88L2.45 3.92L2.45 3.92Q2.47 3.96 2.50 4.08L2.50 4.08L2.50 4.08Q2.54 4.18 2.56 4.22L2.56 4.22L2.56 4.22Q2.56 4.25 2.56 4.26L2.56 4.26L2.56 4.26Q2.56 4.27 2.57 4.29L2.57 4.29L2.57 4.29Q2.57 4.31 2.57 4.32L2.57 4.32L2.57 4.32Q2.58 4.33 2.58 4.35L2.58 4.35ZM13.72 11.01L13.72 11.01L13.72 11.01Q13.72 11.08 13.73 11.18L13.73 11.18L13.73 11.18Q13.73 11.29 13.73 11.42L13.73 11.42L13.73 11.42Q13.73 11.58 13.69 11.82L13.69 11.82L13.69 11.82Q13.64 12.07 13.53 12.33L13.53 12.33L13.53 12.33Q13.43 12.60 13.25 12.87L13.25 12.87L13.25 12.87Q13.07 13.13 12.81 13.34L12.81 13.34L12.81 13.34Q12.55 13.56 12.20 13.69L12.20 13.69L12.20 13.69Q11.85 13.82 11.40 13.82L11.40 13.82L11.40 13.82Q10.99 13.82 10.57 13.67L10.57 13.67L10.57 13.67Q10.15 13.51 9.81 13.19L9.81 13.19L9.81 13.19Q9.46 12.87 9.24 12.36L9.24 12.36L9.24 12.36Q9.02 11.86 9.02 11.16L9.02 11.16L9.02 11.16Q9.02 10.73 9.13 10.30L9.13 10.30L9.13 10.30Q9.24 9.88 9.43 9.50L9.43 9.50L9.43 9.50Q9.62 9.13 9.87 8.81L9.87 8.81L9.87 8.81Q10.13 8.49 10.41 8.26L10.41 8.26L10.41 8.26Q10.70 8.03 11.00 7.90L11.00 7.90L11.00 7.90Q11.31 7.77 11.59 7.77L11.59 7.77L11.59 7.77Q12.09 7.77 12.42 7.93L12.42 7.93L12.42 7.93Q12.74 8.09 12.93 8.32L12.93 8.32L12.93 8.32Q13.13 8.55 13.20 8.81L13.20 8.81L13.20 8.81Q13.28 9.08 13.28 9.29L13.28 9.29L13.28 9.29Q13.28 9.50 13.18 9.76L13.18 9.76L13.18 9.76Q13.08 10.02 12.86 10.26L12.86 10.26L12.86 10.26Q12.63 10.49 12.27 10.65L12.27 10.65L12.27 10.65Q11.91 10.81 11.38 10.81L11.38 10.81L11.38 10.81Q11.10 10.81 10.88 10.74L10.88 10.74L10.88 10.74Q10.66 10.66 10.49 10.54L10.49 10.54L10.49 10.54Q10.32 10.42 10.20 10.28L10.20 10.28L10.20 10.28Q10.08 10.14 9.99 10.01L9.99 10.01L9.99 10.01Q9.87 10.44 9.87 11.01L9.87 11.01L9.87 11.01Q9.87 11.40 9.98 11.71L9.98 11.71L9.98 11.71Q10.10 12.02 10.29 12.24L10.29 12.24L10.29 12.24Q10.49 12.46 10.77 12.57L10.77 12.57L10.77 12.57Q11.04 12.69 11.37 12.69L11.37 12.69L11.37 12.69Q11.78 12.69 12.09 12.55L12.09 12.55L12.09 12.55Q12.39 12.41 12.62 12.20L12.62 12.20L12.62 12.20Q12.85 11.98 13.02 11.73L13.02 11.73L13.02 11.73Q13.19 11.48 13.31 11.28L13.31 11.28L13.31 11.28Q13.43 11.07 13.52 10.93L13.52 10.93L13.52 10.93Q13.62 10.79 13.71 10.80L13.71 10.80L13.71 10.80Q13.75 10.80 13.75 10.87L13.75 10.87L13.75 10.87Q13.75 10.90 13.74 10.94L13.74 10.94L13.74 10.94Q13.73 10.97 13.72 11.01ZM11.66 8.46L11.66 8.46L11.66 8.46Q11.54 8.46 11.34 8.51L11.34 8.51L11.34 8.51Q11.15 8.57 10.93 8.70L10.93 8.70L10.93 8.70Q10.72 8.83 10.51 9.05L10.51 9.05L10.51 9.05Q10.29 9.27 10.14 9.61L10.14 9.61L10.14 9.61Q10.23 9.56 10.31 9.53L10.31 9.53L10.31 9.53Q10.38 9.50 10.40 9.50L10.40 9.50L10.40 9.50Q10.42 9.50 10.45 9.52L10.45 9.52L10.45 9.52Q10.60 9.79 10.84 9.90L10.84 9.90L10.84 9.90Q11.07 10.01 11.37 10.01L11.37 10.01L11.37 10.01Q11.60 10.01 11.77 9.94L11.77 9.94L11.77 9.94Q11.94 9.86 12.04 9.73L12.04 9.73L12.04 9.73Q12.15 9.61 12.20 9.46L12.20 9.46L12.20 9.46Q12.25 9.32 12.25 9.17L12.25 9.17L12.25 9.17Q12.25 8.87 12.09 8.66L12.09 8.66L12.09 8.66Q11.94 8.46 11.66 8.46ZM16.00 4.38L16.00 4.38L16.00 4.38Q16.00 4.47 15.98 4.75L15.98 4.75L15.98 4.75Q15.97 5.03 15.95 5.42L15.95 5.42L15.95 5.42Q15.93 5.82 15.90 6.29L15.90 6.29L15.90 6.29Q15.88 6.75 15.85 7.22L15.85 7.22L15.85 7.22Q15.83 7.69 15.80 8.13L15.80 8.13L15.80 8.13Q15.78 8.57 15.78 8.89L15.78 8.89L15.78 8.89Q15.76 9.09 15.76 9.33L15.76 9.33L15.76 9.33Q15.76 9.57 15.76 9.84L15.76 9.84L15.76 9.84Q15.76 10.21 15.76 10.60L15.76 10.60L15.76 10.60Q15.76 10.99 15.77 11.38L15.77 11.38L15.77 11.38Q15.78 11.76 15.79 12.11L15.79 12.11L15.79 12.11Q15.80 12.46 15.80 12.74L15.80 12.74L15.80 12.74Q15.81 13.02 15.81 13.21L15.81 13.21L15.81 13.21Q15.82 13.40 15.82 13.45L15.82 13.45L15.82 13.45Q15.82 13.54 15.79 13.59L15.79 13.59L15.79 13.59Q15.76 13.64 15.71 13.66L15.71 13.66L15.71 13.66Q15.67 13.68 15.62 13.67L15.62 13.67L15.62 13.67Q15.57 13.66 15.54 13.64L15.54 13.64L15.54 13.64Q15.50 13.62 15.47 13.59L15.47 13.59L15.47 13.59Q15.45 13.56 15.44 13.55L15.44 13.55L15.44 13.55Q15.42 13.54 15.41 13.54L15.41 13.54L15.41 13.54Q15.40 13.55 15.39 13.60L15.39 13.60L15.39 13.60Q15.37 13.77 15.32 13.86L15.32 13.86L15.32 13.86Q15.26 13.95 15.19 13.98L15.19 13.98L15.19 13.98Q15.13 14.01 15.07 14L15.07 14L15.07 14Q15.02 13.99 15.00 13.95L15.00 13.95L15.00 13.95Q14.99 13.92 14.96 13.91L14.96 13.91L14.96 13.91Q14.93 13.90 14.90 13.90L14.90 13.90L14.90 13.90Q14.86 13.90 14.83 13.88L14.83 13.88L14.83 13.88Q14.80 13.86 14.79 13.81L14.79 13.81L14.79 13.81Q14.74 13.58 14.72 13.22L14.72 13.22L14.72 13.22Q14.71 12.86 14.71 12.41L14.71 12.41L14.71 12.41Q14.71 12.02 14.72 11.57L14.72 11.57L14.72 11.57Q14.72 11.12 14.72 10.64L14.72 10.64L14.72 10.64Q14.72 10.37 14.72 10.10L14.72 10.10L14.72 10.10Q14.72 9.83 14.71 9.55L14.71 9.55L14.71 9.12L14.71 9.12Q14.71 8.57 14.74 8.01L14.74 8.01L14.74 8.01Q14.77 7.45 14.81 6.94L14.81 6.94L14.81 6.94Q14.85 6.43 14.90 5.97L14.90 5.97L14.90 5.97Q14.94 5.52 14.98 5.17L14.98 5.17L14.98 5.17Q15.01 4.83 15.03 4.61L15.03 4.61L15.03 4.61Q15.05 4.39 15.05 4.33L15.05 4.33L15.05 4.33Q15.04 4.29 15.06 4.27L15.06 4.27L15.06 4.27Q15.07 4.25 15.10 4.24L15.10 4.24L15.10 4.24Q15.13 4.24 15.17 4.23L15.17 4.23L15.17 4.23Q15.20 4.23 15.23 4.22L15.23 4.22L15.23 4.22Q15.28 4.19 15.31 4.20L15.31 4.20L15.31 4.20Q15.34 4.21 15.36 4.23L15.36 4.23L15.36 4.23Q15.38 4.25 15.40 4.28L15.40 4.28L15.40 4.28Q15.42 4.30 15.45 4.30L15.45 4.30L15.45 4.30Q15.49 4.29 15.51 4.28L15.51 4.28L15.51 4.28Q15.54 4.26 15.56 4.24L15.56 4.24L15.56 4.24Q15.57 4.22 15.59 4.21L15.59 4.21L15.59 4.21Q15.61 4.20 15.63 4.20L15.63 4.20L15.63 4.20Q15.69 4.22 15.74 4.22L15.74 4.22L15.74 4.22Q15.79 4.22 15.79 4.20L15.79 4.20L15.79 4.20Q15.80 4.15 15.83 4.15L15.83 4.15L15.83 4.15Q15.86 4.16 15.90 4.19L15.90 4.19L15.90 4.19Q15.94 4.22 15.97 4.26L15.97 4.26L15.97 4.26Q16.00 4.30 16.00 4.38ZM18.50 7.76L18.50 7.76L18.50 7.76Q18.49 7.81 18.48 7.95L18.48 7.95L18.48 7.95Q18.48 8.09 18.46 8.31L18.46 8.31L18.46 8.31Q18.76 8.22 19.07 8.18L19.07 8.18L19.07 8.18Q19.37 8.13 19.69 8.13L19.69 8.13L19.69 8.13Q20.05 8.13 20.41 8.21L20.41 8.21L20.41 8.21Q20.76 8.29 21.07 8.48L21.07 8.48L21.07 8.48Q21.31 8.62 21.48 8.93L21.48 8.93L21.48 8.93Q21.64 9.25 21.75 9.61L21.75 9.61L21.75 9.61Q21.81 9.82 21.88 10.08L21.88 10.08L21.88 10.08Q21.94 10.34 21.94 10.64L21.94 10.64L21.94 10.64Q21.94 10.90 21.87 11.18L21.87 11.18L21.87 11.18Q21.81 11.46 21.64 11.76L21.64 11.76L21.64 11.76Q21.48 12.06 21.20 12.37L21.20 12.37L21.20 12.37Q20.92 12.68 20.48 13.00L20.48 13.00L20.48 13.00Q20.06 13.30 19.73 13.46L19.73 13.46L19.73 13.46Q19.39 13.62 19.16 13.69L19.16 13.69L19.16 13.69Q18.93 13.75 18.80 13.74L18.80 13.74L18.80 13.74Q18.68 13.74 18.66 13.73L18.66 13.73L18.66 13.73Q18.59 13.69 18.53 13.57L18.53 13.57L18.53 13.57Q18.47 13.46 18.36 13.33L18.36 13.33L18.36 13.33Q18.33 13.29 18.30 13.24L18.30 13.24L18.30 13.24Q18.27 13.20 18.24 13.14L18.24 13.14L18.24 13.14Q18.22 13.79 18.21 14.42L18.21 14.42L18.21 14.42Q18.20 15.05 18.20 15.60L18.20 15.60L18.20 15.60Q18.20 15.94 18.20 16.24L18.20 16.24L18.20 16.24Q18.21 16.54 18.22 16.78L18.22 16.78L18.22 16.78Q18.22 16.86 18.23 16.95L18.23 16.95L18.23 16.95Q18.25 17.04 18.24 17.10L18.24 17.10L18.24 17.10Q18.24 17.17 18.21 17.21L18.21 17.21L18.21 17.21Q18.18 17.25 18.11 17.25L18.11 17.25L18.11 17.25Q17.97 17.25 17.90 17.32L17.90 17.32L17.90 17.32Q17.83 17.38 17.73 17.52L17.73 17.52L17.73 17.52Q17.68 17.58 17.62 17.61L17.62 17.61L17.62 17.61Q17.55 17.64 17.49 17.61L17.49 17.61L17.49 17.61Q17.42 17.58 17.36 17.48L17.36 17.48L17.36 17.48Q17.29 17.38 17.24 17.19L17.24 17.19L17.24 17.19Q17.22 17.10 17.20 16.97L17.20 16.97L17.20 16.97Q17.19 16.84 17.18 16.64L17.18 16.64L17.18 16.64Q17.17 16.43 17.16 16.15L17.16 16.15L17.16 16.15Q17.16 15.87 17.16 15.48L17.16 15.48L17.19 13.11L17.19 13.11Q17.20 12.22 17.25 11.37L17.25 11.37L17.25 11.37Q17.31 10.52 17.38 9.78L17.38 9.78L17.38 9.78Q17.21 9.84 17.07 9.88L17.07 9.88L17.07 9.88Q16.93 9.91 16.89 9.89L16.89 9.89L16.89 9.89Q16.82 9.86 16.80 9.83L16.80 9.83L16.80 9.83Q16.78 9.80 16.78 9.77L16.78 9.77L16.78 9.77Q16.77 9.73 16.76 9.71L16.76 9.71L16.76 9.71Q16.75 9.69 16.70 9.68L16.70 9.68L16.70 9.68Q16.65 9.67 16.62 9.64L16.62 9.64L16.62 9.64Q16.58 9.60 16.57 9.57L16.57 9.57L16.57 9.57Q16.56 9.54 16.58 9.51L16.58 9.51L16.58 9.51Q16.60 9.47 16.65 9.47L16.65 9.47L16.65 9.47Q16.70 9.46 16.67 9.43L16.67 9.43L16.67 9.43Q16.63 9.40 16.60 9.35L16.60 9.35L16.60 9.35Q16.57 9.30 16.58 9.22L16.58 9.22L16.58 9.22Q16.60 9.14 16.75 9.04L16.75 9.04L16.75 9.04Q16.84 8.97 17.04 8.86L17.04 8.86L17.04 8.86Q17.25 8.76 17.53 8.63L17.53 8.63L17.53 8.63Q17.61 8.09 17.69 7.76L17.69 7.76L17.69 7.76Q17.77 7.42 17.83 7.34L17.83 7.34L17.83 7.34Q17.86 7.31 17.88 7.28L17.88 7.28L17.88 7.28Q17.89 7.25 17.90 7.23L17.90 7.23L17.90 7.23Q17.92 7.21 17.94 7.20L17.94 7.20L17.94 7.20Q17.96 7.18 18.01 7.17L18.01 7.17L18.01 7.17Q18.06 7.16 18.09 7.19L18.09 7.19L18.09 7.19Q18.13 7.22 18.16 7.26L18.16 7.26L18.16 7.26Q18.19 7.31 18.22 7.35L18.22 7.35L18.22 7.35Q18.26 7.39 18.31 7.40L18.31 7.40L18.31 7.40Q18.40 7.41 18.46 7.50L18.46 7.50L18.46 7.50Q18.52 7.58 18.50 7.76ZM19.82 9.09L19.82 9.09L19.82 9.09Q19.51 9.09 19.16 9.16L19.16 9.16L19.16 9.16Q18.81 9.23 18.39 9.39L18.39 9.39L18.27 12.35L18.27 12.35Q18.33 12.37 18.40 12.38L18.40 12.38L18.40 12.38Q18.48 12.38 18.57 12.38L18.57 12.38L18.57 12.38Q18.80 12.38 19.10 12.32L19.10 12.32L19.10 12.32Q19.39 12.26 19.70 12.13L19.70 12.13L19.70 12.13Q20.01 12.00 20.31 11.82L20.31 11.82L20.31 11.82Q20.61 11.64 20.85 11.40L20.85 11.40L20.85 11.40Q21.08 11.16 21.23 10.87L21.23 10.87L21.23 10.87Q21.37 10.58 21.38 10.23L21.38 10.23L21.38 10.23Q21.38 10.02 21.28 9.82L21.28 9.82L21.28 9.82Q21.18 9.62 20.99 9.45L20.99 9.45L20.99 9.45Q20.79 9.29 20.50 9.19L20.50 9.19L20.50 9.19Q20.21 9.09 19.82 9.09ZM24.62 4.58L24.62 4.58L24.62 4.58Q24.63 4.72 24.61 4.88L24.61 4.88L24.61 4.88Q24.60 5.05 24.56 5.21L24.56 5.21L24.56 5.21Q24.52 5.37 24.46 5.49L24.46 5.49L24.46 5.49Q24.39 5.61 24.30 5.66L24.30 5.66L24.30 5.66Q24.08 5.78 23.91 5.78L23.91 5.78L23.91 5.78Q23.77 5.78 23.67 5.71L23.67 5.71L23.67 5.71Q23.57 5.65 23.47 5.56L23.47 5.56L23.47 5.56Q23.34 5.46 23.25 5.28L23.25 5.28L23.25 5.28Q23.15 5.10 23.15 4.94L23.15 4.94L23.15 4.94Q23.15 4.81 23.20 4.62L23.20 4.62L23.20 4.62Q23.24 4.43 23.31 4.25L23.31 4.25L23.31 4.25Q23.38 4.07 23.46 3.93L23.46 3.93L23.46 3.93Q23.54 3.78 23.61 3.73L23.61 3.73L23.61 3.73Q23.73 3.63 23.83 3.62L23.83 3.62L23.83 3.62Q23.93 3.61 23.99 3.63L23.99 3.63L23.99 3.63Q24.14 3.66 24.25 3.72L24.25 3.72L24.25 3.72Q24.37 3.77 24.45 3.87L24.45 3.87L24.45 3.87Q24.53 3.98 24.57 4.15L24.57 4.15L24.57 4.15Q24.61 4.32 24.62 4.58ZM24.06 7.64L24.06 7.64L24.06 7.64Q24.10 7.67 24.11 7.86L24.11 7.86L24.11 7.86Q24.13 8.05 24.13 8.36L24.13 8.36L24.13 8.36Q24.13 8.57 24.12 8.80L24.12 8.80L24.12 8.80Q24.12 9.04 24.11 9.30L24.11 9.30L24.11 9.30Q24.10 9.55 24.08 9.81L24.08 9.81L24.08 9.81Q24.07 10.06 24.06 10.29L24.06 10.29L24.06 10.29Q24.04 10.68 24.04 11.00L24.04 11.00L24.04 11.00Q24.04 11.33 24.04 11.63L24.04 11.63L24.04 11.63Q24.04 12.02 24.04 12.35L24.04 12.35L24.04 12.35Q24.05 12.68 24.05 12.90L24.05 12.90L24.05 12.90Q24.05 13.14 24.03 13.27L24.03 13.27L24.03 13.27Q24.01 13.39 23.96 13.41L23.96 13.41L23.96 13.41Q23.90 13.42 23.86 13.46L23.86 13.46L23.86 13.46Q23.82 13.51 23.78 13.55L23.78 13.55L23.78 13.55Q23.75 13.59 23.70 13.62L23.70 13.62L23.70 13.62Q23.66 13.65 23.60 13.64L23.60 13.64L23.60 13.64Q23.56 13.63 23.48 13.58L23.48 13.58L23.48 13.58Q23.40 13.52 23.31 13.44L23.31 13.44L23.31 13.44Q23.21 13.36 23.13 13.26L23.13 13.26L23.13 13.26Q23.05 13.16 23.02 13.05L23.02 13.05L23.02 13.05Q23.01 13.00 23.00 12.83L23.00 12.83L23.00 12.83Q22.99 12.67 22.98 12.43L22.98 12.43L22.98 12.43Q22.98 12.20 22.97 11.92L22.97 11.92L22.97 11.92Q22.96 11.63 22.96 11.34L22.96 11.34L22.96 11.34Q22.96 11.05 22.96 10.77L22.96 10.77L22.96 10.77Q22.96 10.49 22.96 10.27L22.96 10.27L22.96 10.27Q22.96 9.92 22.98 9.56L22.98 9.56L22.98 9.56Q23.00 9.19 23.03 8.88L23.03 8.88L23.03 8.88Q23.06 8.57 23.10 8.33L23.10 8.33L23.10 8.33Q23.13 8.09 23.14 8.00L23.14 8.00L23.14 8.00Q23.17 7.83 23.20 7.74L23.20 7.74L23.20 7.74Q23.23 7.65 23.27 7.61L23.27 7.61L23.27 7.61Q23.30 7.57 23.34 7.56L23.34 7.56L23.34 7.56Q23.38 7.55 23.42 7.54L23.42 7.54L23.42 7.54Q23.50 7.53 23.61 7.53L23.61 7.53L23.61 7.53Q23.71 7.54 23.81 7.55L23.81 7.55L23.81 7.55Q23.91 7.57 23.98 7.59L23.98 7.59L23.98 7.59Q24.05 7.62 24.06 7.64ZM29.44 13.21L29.44 13.21L29.44 13.21Q29.44 13.29 29.38 13.39L29.38 13.39L29.38 13.39Q29.32 13.49 29.21 13.49L29.21 13.49L29.21 13.49Q29.15 13.49 29.11 13.45L29.11 13.45L29.11 13.45Q29.08 13.42 29.05 13.42L29.05 13.42L29.05 13.42Q29.00 13.42 28.95 13.45L28.95 13.45L28.95 13.45Q28.91 13.49 28.81 13.49L28.81 13.49L28.81 13.49Q28.67 13.49 28.57 13.39L28.57 13.39L28.57 13.39Q28.47 13.29 28.41 13.14L28.41 13.14L28.41 13.14Q28.35 12.98 28.32 12.80L28.32 12.80L28.32 12.80Q28.29 12.62 28.29 12.46L28.29 12.46L28.29 12.46Q28.29 12.15 28.31 11.76L28.31 11.76L28.31 11.76Q28.33 11.37 28.37 10.95L28.37 10.95L28.37 10.95Q28.40 10.54 28.42 10.13L28.42 10.13L28.42 10.13Q28.44 9.72 28.44 9.37L28.44 9.37L28.44 9.37Q28.44 8.91 28.38 8.65L28.38 8.65L28.38 8.65Q28.32 8.39 28.16 8.39L28.16 8.39L28.16 8.39Q28.01 8.41 27.86 8.65L27.86 8.65L27.86 8.65Q27.70 8.89 27.54 9.26L27.54 9.26L27.54 9.26Q27.37 9.63 27.21 10.10L27.21 10.10L27.21 10.10Q27.06 10.57 26.91 11.06L26.91 11.06L26.91 11.06Q26.76 11.55 26.63 12.01L26.63 12.01L26.63 12.01Q26.50 12.47 26.40 12.83L26.40 12.83L26.40 12.83Q26.30 13.19 26.22 13.42L26.22 13.42L26.22 13.42Q26.15 13.64 26.12 13.64L26.12 13.64L26.12 13.64Q26.07 13.64 26.04 13.61L26.04 13.61L26.04 13.61Q26.01 13.59 25.99 13.56L25.99 13.56L25.99 13.56Q25.96 13.54 25.93 13.51L25.93 13.51L25.93 13.51Q25.89 13.49 25.83 13.49L25.83 13.49L25.83 13.49Q25.76 13.49 25.74 13.50L25.74 13.50L25.74 13.50Q25.72 13.51 25.70 13.54L25.70 13.54L25.70 13.54Q25.67 13.56 25.63 13.57L25.63 13.57L25.63 13.57Q25.59 13.58 25.48 13.58L25.48 13.58L25.48 13.58Q25.36 13.58 25.24 13.52L25.24 13.52L25.24 13.52Q25.12 13.46 25.12 13.33L25.12 13.33L25.12 13.33Q25.12 13.25 25.15 12.99L25.15 12.99L25.15 12.99Q25.18 12.74 25.21 12.36L25.21 12.36L25.21 12.36Q25.25 11.99 25.30 11.53L25.30 11.53L25.30 11.53Q25.34 11.07 25.38 10.58L25.38 10.58L25.38 10.58Q25.42 10.08 25.44 9.59L25.44 9.59L25.44 9.59Q25.47 9.10 25.47 8.65L25.47 8.65L25.47 8.65Q25.47 8.44 25.46 8.25L25.46 8.25L25.46 8.25Q25.46 8.06 25.46 7.89L25.46 7.89L25.46 7.89Q25.46 7.85 25.50 7.85L25.50 7.85L25.50 7.85Q25.58 7.85 25.62 7.88L25.62 7.88L25.62 7.88Q25.67 7.91 25.69 7.94L25.69 7.94L25.69 7.94Q25.71 7.98 25.71 8.01L25.71 8.01L25.71 8.01Q25.72 8.04 25.72 8.04L25.72 8.04L25.72 8.04Q25.74 8.04 25.77 8.02L25.77 8.02L25.77 8.02Q25.80 7.99 25.83 7.96L25.83 7.96L25.83 7.96Q25.86 7.94 25.89 7.91L25.89 7.91L25.89 7.91Q25.92 7.89 25.94 7.89L25.94 7.89L26.00 7.89L26.00 7.89Q26.11 7.89 26.15 7.86L26.15 7.86L26.15 7.86Q26.19 7.83 26.21 7.79L26.21 7.79L26.21 7.79Q26.22 7.75 26.23 7.72L26.23 7.72L26.23 7.72Q26.24 7.69 26.27 7.69L26.27 7.69L26.27 7.69Q26.29 7.69 26.33 7.72L26.33 7.72L26.33 7.72Q26.37 7.75 26.40 7.82L26.40 7.82L26.40 7.82Q26.44 7.90 26.47 8.01L26.47 8.01L26.47 8.01Q26.50 8.13 26.50 8.29L26.50 8.29L26.50 8.29Q26.50 8.51 26.48 8.85L26.48 8.85L26.48 8.85Q26.46 9.18 26.44 9.56L26.44 9.56L26.44 9.56Q26.41 9.94 26.39 10.33L26.39 10.33L26.39 10.33Q26.37 10.71 26.37 11.03L26.37 11.03L26.37 11.03Q26.44 10.73 26.55 10.37L26.55 10.37L26.55 10.37Q26.65 10.01 26.79 9.65L26.79 9.65L26.79 9.65Q26.93 9.28 27.10 8.92L27.10 8.92L27.10 8.92Q27.26 8.57 27.45 8.30L27.45 8.30L27.45 8.30Q27.64 8.03 27.86 7.86L27.86 7.86L27.86 7.86Q28.07 7.69 28.30 7.69L28.30 7.69L28.30 7.69Q28.67 7.69 28.91 7.83L28.91 7.83L28.91 7.83Q29.14 7.96 29.28 8.20L29.28 8.20L29.28 8.20Q29.42 8.44 29.47 8.76L29.47 8.76L29.47 8.76Q29.52 9.08 29.52 9.45L29.52 9.45L29.52 9.45Q29.52 9.77 29.49 10.11L29.49 10.11L29.49 10.11Q29.46 10.46 29.43 10.80L29.43 10.80L29.43 10.80Q29.40 11.15 29.38 11.48L29.38 11.48L29.38 11.48Q29.35 11.82 29.35 12.11L29.35 12.11L29.35 12.11Q29.35 12.48 29.39 12.77L29.39 12.77L29.39 12.77Q29.44 13.06 29.44 13.21ZM33.12 13.19L33.12 13.19L33.12 13.19Q33.53 13.19 33.94 13.27L33.94 13.27L33.94 13.27Q34.34 13.34 34.67 13.52L34.67 13.52L34.67 13.52Q35 13.70 35.20 13.99L35.20 13.99L35.20 13.99Q35.40 14.28 35.40 14.72L35.40 14.72L35.40 14.72Q35.40 15.04 35.25 15.37L35.25 15.37L35.25 15.37Q35.10 15.70 34.84 16.00L34.84 16.00L34.84 16.00Q34.57 16.31 34.21 16.58L34.21 16.58L34.21 16.58Q33.85 16.86 33.43 17.06L33.43 17.06L33.43 17.06Q33.02 17.26 32.57 17.38L32.57 17.38L32.57 17.38Q32.12 17.49 31.66 17.49L31.66 17.49L31.66 17.49Q31.29 17.49 30.97 17.41L30.97 17.41L30.97 17.41Q30.65 17.34 30.40 17.18L30.40 17.18L30.40 17.18Q30.16 17.02 30.02 16.79L30.02 16.79L30.02 16.79Q29.87 16.55 29.87 16.23L29.87 16.23L29.87 16.23Q29.87 15.91 30.00 15.64L30.00 15.64L30.00 15.64Q30.12 15.36 30.32 15.13L30.32 15.13L30.32 15.13Q30.52 14.90 30.78 14.71L30.78 14.71L30.78 14.71Q31.04 14.52 31.32 14.39L31.32 14.39L31.32 14.39Q31.60 14.27 31.86 14.20L31.86 14.20L31.86 14.20Q32.13 14.13 32.35 14.13L32.35 14.13L32.35 14.13Q32.46 14.14 32.50 14.16L32.50 14.16L32.50 14.16Q32.55 14.18 32.55 14.20L32.55 14.20L32.55 14.20Q32.55 14.22 32.53 14.25L32.53 14.25L32.53 14.25Q32.50 14.28 32.50 14.30L32.50 14.30L32.50 14.30Q32.52 14.34 32.53 14.40L32.53 14.40L32.53 14.40Q32.55 14.45 32.55 14.51L32.55 14.51L32.55 14.51Q32.55 14.57 32.52 14.63L32.52 14.63L32.52 14.63Q32.50 14.68 32.42 14.69L32.42 14.69L32.42 14.69Q32.14 14.76 31.79 14.92L31.79 14.92L31.79 14.92Q31.45 15.09 31.14 15.31L31.14 15.31L31.14 15.31Q30.84 15.53 30.63 15.79L30.63 15.79L30.63 15.79Q30.43 16.04 30.42 16.30L30.42 16.30L30.42 16.30Q30.42 16.43 30.54 16.48L30.54 16.48L30.54 16.48Q30.65 16.54 30.86 16.54L30.86 16.54L30.86 16.54Q31.12 16.54 31.49 16.46L31.49 16.46L31.49 16.46Q31.85 16.39 32.24 16.25L32.24 16.25L32.24 16.25Q32.63 16.11 33.01 15.90L33.01 15.90L33.01 15.90Q33.39 15.70 33.69 15.45L33.69 15.45L33.69 15.45Q34.00 15.20 34.18 14.90L34.18 14.90L34.18 14.90Q34.36 14.61 34.36 14.27L34.36 14.27L34.36 14.27Q34.36 14.11 34.30 14.02L34.30 14.02L34.30 14.02Q34.23 13.92 34.15 13.88L34.15 13.88L34.15 13.88Q34.06 13.83 33.97 13.82L33.97 13.82L33.97 13.82Q33.88 13.81 33.82 13.81L33.82 13.81L33.82 13.81Q33.33 13.81 32.83 13.87L32.83 13.87L32.83 13.87Q32.32 13.92 31.91 13.99L31.91 13.99L31.91 13.99Q31.49 14.05 31.23 14.11L31.23 14.11L31.23 14.11Q30.96 14.17 30.95 14.17L30.95 14.17L30.95 14.17Q30.80 14.17 30.67 14.11L30.67 14.11L30.67 14.11Q30.54 14.05 30.45 13.95L30.45 13.95L30.45 13.95Q30.37 13.86 30.31 13.73L30.31 13.73L30.31 13.73Q30.26 13.60 30.26 13.47L30.26 13.47L30.26 13.47Q30.26 13.37 30.39 13.18L30.39 13.18L30.39 13.18Q30.51 12.98 30.71 12.76L30.71 12.76L30.71 12.76Q30.91 12.53 31.16 12.31L31.16 12.31L31.16 12.31Q31.42 12.09 31.68 11.95L31.68 11.95L31.68 11.95Q31.45 11.83 31.26 11.65L31.26 11.65L31.26 11.65Q31.08 11.47 30.95 11.27L30.95 11.27L30.95 11.27Q30.82 11.06 30.75 10.83L30.75 10.83L30.75 10.83Q30.69 10.60 30.69 10.36L30.69 10.36L30.69 10.36Q30.69 9.90 30.82 9.54L30.82 9.54L30.82 9.54Q30.95 9.18 31.16 8.91L31.16 8.91L31.16 8.91Q31.37 8.65 31.63 8.47L31.63 8.47L31.63 8.47Q31.90 8.29 32.16 8.18L32.16 8.18L32.16 8.18Q32.42 8.07 32.65 8.03L32.65 8.03L32.65 8.03Q32.88 7.98 33.04 7.98L33.04 7.98L33.04 7.98Q33.11 7.98 33.16 7.99L33.16 7.99L33.16 7.99Q33.22 8.00 33.26 8.01L33.26 8.01L33.26 8.01Q33.43 7.74 33.65 7.43L33.65 7.43L33.65 7.43Q33.87 7.12 34.11 6.81L34.11 6.81L34.11 6.81Q34.34 6.51 34.58 6.23L34.58 6.23L34.58 6.23Q34.82 5.95 35.01 5.74L35.01 5.74L35.01 5.74Q35.21 5.52 35.34 5.40L35.34 5.40L35.34 5.40Q35.48 5.27 35.53 5.27L35.53 5.27L35.53 5.27Q35.59 5.27 35.68 5.35L35.68 5.35L35.68 5.35Q35.77 5.43 35.85 5.53L35.85 5.53L35.85 5.53Q35.93 5.63 35.99 5.72L35.99 5.72L35.99 5.72Q36.05 5.81 36.05 5.84L36.05 5.84L36.05 5.84Q36.05 5.88 36.02 5.91L36.02 5.91L36.02 5.91Q35.99 5.93 35.99 5.95L35.99 5.95L35.99 5.95Q35.99 5.99 36.03 6.01L36.03 6.01L36.03 6.01Q36.07 6.04 36.14 6.07L36.14 6.07L36.14 6.07Q36.16 6.08 36.16 6.08L36.16 6.08L36.16 6.08Q36.17 6.08 36.17 6.10L36.17 6.10L36.17 6.10Q36.17 6.13 36.08 6.19L36.08 6.19L36.08 6.19Q35.99 6.25 35.79 6.42L35.79 6.42L35.79 6.42Q35.59 6.58 35.28 6.86L35.28 6.86L35.28 6.86Q34.97 7.15 34.51 7.62L34.51 7.62L34.51 7.62Q34.40 7.72 34.28 7.88L34.28 7.88L34.28 7.88Q34.17 8.03 34.03 8.20L34.03 8.20L34.03 8.20Q34.21 8.29 34.40 8.45L34.40 8.45L34.40 8.45Q34.59 8.61 34.74 8.81L34.74 8.81L34.74 8.81Q34.90 9.02 35.00 9.29L35.00 9.29L35.00 9.29Q35.10 9.56 35.10 9.86L35.10 9.86L35.10 9.86Q35.10 10.52 34.88 10.96L34.88 10.96L34.88 10.96Q34.66 11.41 34.31 11.68L34.31 11.68L34.31 11.68Q33.96 11.95 33.53 12.07L33.53 12.07L33.53 12.07Q33.10 12.18 32.68 12.18L32.68 12.18L32.68 12.18Q32.58 12.18 32.49 12.17L32.49 12.17L32.49 12.17Q32.40 12.17 32.31 12.15L32.31 12.15L32.31 12.15Q32.15 12.26 31.95 12.41L31.95 12.41L31.95 12.41Q31.75 12.56 31.56 12.74L31.56 12.74L31.56 12.74Q31.37 12.91 31.21 13.10L31.21 13.10L31.21 13.10Q31.05 13.28 30.97 13.45L30.97 13.45L30.97 13.45Q31.24 13.44 31.49 13.40L31.49 13.40L31.49 13.40Q31.75 13.36 32.00 13.32L32.00 13.32L32.00 13.32Q32.26 13.27 32.53 13.23L32.53 13.23L32.53 13.23Q32.81 13.19 33.12 13.19ZM32.91 8.83L32.91 8.83L32.91 8.83Q32.91 8.69 33.07 8.36L33.07 8.36L33.07 8.36Q32.74 8.46 32.49 8.67L32.49 8.67L32.49 8.67Q32.24 8.87 32.06 9.13L32.06 9.13L32.06 9.13Q31.88 9.39 31.79 9.69L31.79 9.69L31.79 9.69Q31.69 9.99 31.69 10.28L31.69 10.28L31.69 10.28Q31.69 10.49 31.74 10.69L31.74 10.69L31.74 10.69Q31.79 10.88 31.90 11.04L31.90 11.04L31.90 11.04Q32.01 11.19 32.19 11.28L32.19 11.28L32.19 11.28Q32.36 11.38 32.61 11.38L32.61 11.38L32.61 11.38Q32.89 11.38 33.10 11.28L33.10 11.28L33.10 11.28Q33.32 11.18 33.48 11.02L33.48 11.02L33.48 11.02Q33.65 10.86 33.76 10.66L33.76 10.66L33.76 10.66Q33.87 10.46 33.94 10.26L33.94 10.26L33.94 10.26Q34.02 10.07 34.05 9.90L34.05 9.90L34.05 9.90Q34.08 9.73 34.08 9.63L34.08 9.63L34.08 9.63Q34.08 9.21 33.95 8.99L33.95 8.99L33.95 8.99Q33.82 8.76 33.64 8.64L33.64 8.64L33.64 8.64Q33.54 8.76 33.44 8.86L33.44 8.86L33.44 8.86Q33.34 8.97 33.23 9.08L33.23 9.08L33.23 9.08Q33.22 9.09 33.19 9.09L33.19 9.09L33.19 9.09Q33.17 9.09 33.15 9.07L33.15 9.07L33.15 9.07Q33.14 9.05 33.11 9.05L33.11 9.05L33.11 9.05Q33.09 9.05 33.07 9.07L33.07 9.07L33.07 9.07Q33.04 9.09 33.01 9.09L33.01 9.09L33.01 9.09Q32.96 9.09 32.94 9.04L32.94 9.04L32.94 9.04Q32.91 8.98 32.91 8.83ZM40.85 4.35L40.75 8.08L40.75 8.08Q41.23 8.03 41.74 7.98L41.74 7.98L41.74 7.98Q42.26 7.94 42.71 7.94L42.71 7.94L42.71 7.94Q42.85 7.94 43.03 7.93L43.03 7.93L43.03 7.93Q43.18 7.92 43.38 7.92L43.38 7.92L43.38 7.92Q43.58 7.92 43.82 7.92L43.82 7.92L43.82 7.92Q44.07 7.92 44.35 7.92L44.35 7.92L44.35 7.92Q44.64 7.93 44.93 7.94L44.93 7.94L44.93 7.94Q44.95 7.53 44.98 7.10L44.98 7.10L44.98 7.10Q45.01 6.66 45.03 6.25L45.03 6.25L45.03 6.25Q45.06 5.84 45.07 5.50L45.07 5.50L45.07 5.50Q45.09 5.15 45.10 4.92L45.10 4.92L45.10 4.46L45.10 4.46Q45.10 4.27 45.10 4.08L45.10 4.08L45.10 4.08Q45.10 3.89 45.12 3.77L45.12 3.77L45.12 3.77Q45.17 3.55 45.32 3.55L45.32 3.55L45.32 3.55Q45.40 3.55 45.45 3.57L45.45 3.57L45.45 3.57Q45.50 3.59 45.62 3.64L45.62 3.64L45.62 3.64Q45.68 3.66 45.76 3.70L45.76 3.70L45.76 3.70Q45.83 3.73 45.90 3.77L45.90 3.77L45.90 3.77Q45.96 3.81 46.02 3.85L46.02 3.85L46.02 3.85Q46.07 3.88 46.10 3.91L46.10 3.91L46.10 3.91Q46.13 3.94 46.17 4.00L46.17 4.00L46.17 4.00Q46.21 4.07 46.25 4.14L46.25 4.14L46.25 4.14Q46.29 4.22 46.32 4.30L46.32 4.30L46.32 4.30Q46.35 4.38 46.34 4.43L46.34 4.43L46.34 4.43Q46.33 4.48 46.31 4.83L46.31 4.83L46.31 4.83Q46.28 5.17 46.24 5.74L46.24 5.74L46.24 5.74Q46.20 6.30 46.15 7.05L46.15 7.05L46.15 7.05Q46.10 7.79 46.06 8.64L46.06 8.64L46.06 8.64Q46.00 10.01 46.00 10.91L46.00 10.91L46.00 10.91Q46.00 11.59 46.02 12.00L46.02 12.00L46.02 12.00Q46.05 12.42 46.09 12.59L46.09 12.59L46.09 12.59Q46.15 12.88 46.18 13.00L46.18 13.00L46.18 13.00Q46.20 13.13 46.17 13.17L46.17 13.17L46.17 13.17Q46.16 13.18 46.13 13.19L46.13 13.19L46.13 13.19Q46.06 13.22 45.90 13.25L45.90 13.25L45.90 13.25Q45.88 13.32 45.85 13.37L45.85 13.37L45.85 13.37Q45.82 13.41 45.79 13.44L45.79 13.44L45.79 13.44Q45.77 13.47 45.74 13.49L45.74 13.49L45.74 13.49Q45.67 13.51 45.61 13.53L45.61 13.53L45.61 13.53Q45.55 13.55 45.51 13.51L45.51 13.51L45.51 13.51Q45.49 13.51 45.48 13.49L45.48 13.49L45.48 13.49Q45.45 13.48 45.43 13.42L45.43 13.42L45.43 13.42Q45.36 13.45 45.31 13.42L45.31 13.42L45.31 13.42Q45.28 13.41 45.26 13.39L45.26 13.39L45.26 13.39Q45.21 13.34 45.10 13.22L45.10 13.22L45.10 13.22Q45.00 13.10 44.97 12.89L44.97 12.89L44.97 12.89Q44.95 12.78 44.92 12.66L44.92 12.66L44.92 12.66Q44.89 12.54 44.86 12.42L44.86 12.42L44.86 12.42Q44.83 12.29 44.80 12.17L44.80 12.17L44.80 12.17Q44.77 12.05 44.75 11.95L44.75 11.95L44.75 11.95Q44.73 11.85 44.74 11.55L44.74 11.55L44.74 11.55Q44.74 11.24 44.76 10.83L44.76 10.83L44.76 10.83Q44.78 10.42 44.80 9.95L44.80 9.95L44.80 9.95Q44.83 9.49 44.86 9.08L44.86 9.08L44.86 9.08Q44.86 9.02 44.86 8.96L44.86 8.96L44.86 8.96Q44.86 8.90 44.87 8.83L44.87 8.83L44.87 8.83Q44.56 8.81 44.27 8.81L44.27 8.81L44.27 8.81Q43.97 8.81 43.70 8.81L43.70 8.81L43.70 8.81Q43.35 8.81 43.07 8.81L43.07 8.81L43.07 8.81Q42.79 8.82 42.58 8.83L42.58 8.83L42.58 8.83Q42.33 8.83 42.14 8.84L42.14 8.84L42.14 8.84Q41.41 8.84 40.74 8.88L40.74 8.88L40.74 8.88Q40.73 8.98 40.73 9.06L40.73 9.06L40.73 9.06Q40.72 9.13 40.72 9.19L40.72 9.19L40.72 9.29L40.72 9.29Q40.71 9.96 40.69 10.58L40.69 10.58L40.69 10.58Q40.68 11.19 40.67 11.68L40.67 11.68L40.67 11.68Q40.67 12.16 40.66 12.48L40.66 12.48L40.66 12.48Q40.66 12.80 40.67 12.89L40.67 12.89L40.67 12.89Q40.67 12.95 40.66 13.03L40.66 13.03L40.66 13.03Q40.65 13.10 40.64 13.19L40.64 13.19L40.64 13.19Q40.62 13.28 40.58 13.39L40.58 13.39L40.58 13.39Q40.52 13.40 40.46 13.44L40.46 13.44L40.46 13.44Q40.43 13.46 40.40 13.47L40.40 13.47L40.40 13.47Q40.34 13.51 40.29 13.57L40.29 13.57L40.29 13.57Q40.24 13.62 40.20 13.58L40.20 13.58L40.20 13.58Q40.14 13.54 40.06 13.53L40.06 13.53L40.06 13.53Q39.98 13.51 39.87 13.51L39.87 13.51L39.87 13.51Q39.81 13.51 39.75 13.48L39.75 13.48L39.75 13.48Q39.69 13.45 39.63 13.40L39.63 13.40L39.63 13.40Q39.58 13.36 39.54 13.30L39.54 13.30L39.54 13.30Q39.50 13.25 39.49 13.21L39.49 13.21L39.49 13.21Q39.48 13.17 39.46 13.09L39.46 13.09L39.46 13.09Q39.44 13.01 39.42 12.92L39.42 12.92L39.42 12.92Q39.40 12.84 39.39 12.76L39.39 12.76L39.39 12.76Q39.38 12.68 39.37 12.65L39.37 12.65L39.37 12.65Q39.36 12.61 39.37 12.30L39.37 12.30L39.37 12.30Q39.38 12.00 39.40 11.49L39.40 11.49L39.40 11.49Q39.42 10.99 39.44 10.34L39.44 10.34L39.44 10.34Q39.47 9.69 39.50 8.96L39.50 8.96L39.50 8.96Q39.25 8.99 39.07 9.01L39.07 9.01L39.07 9.01Q38.89 9.02 38.85 9.04L38.85 9.04L38.85 9.04Q38.77 9.05 38.73 9.07L38.73 9.07L38.73 9.07Q38.68 9.08 38.65 9.10L38.65 9.10L38.65 9.10Q38.62 9.11 38.60 9.12L38.60 9.12L38.60 9.12Q38.57 9.12 38.54 9.11L38.54 9.11L38.54 9.11Q38.50 9.11 38.46 9.05L38.46 9.05L38.46 9.05Q38.42 9.00 38.41 8.93L38.41 8.93L38.41 8.93Q38.34 8.92 38.31 8.88L38.31 8.88L38.31 8.88Q38.29 8.85 38.27 8.83L38.27 8.83L38.27 8.83Q38.27 8.77 38.33 8.75L38.33 8.75L38.33 8.75Q38.38 8.72 38.49 8.61L38.49 8.61L38.49 8.61Q38.53 8.57 38.63 8.52L38.63 8.52L38.63 8.52Q38.72 8.48 38.82 8.44L38.82 8.44L38.82 8.44Q38.92 8.39 39.02 8.36L39.02 8.36L39.02 8.36Q39.12 8.33 39.20 8.32L39.20 8.32L39.53 8.26L39.53 8.26Q39.57 7.59 39.61 7.04L39.61 7.04L39.61 7.04Q39.66 6.49 39.69 6.02L39.69 6.02L39.69 6.02Q39.72 5.54 39.75 5.14L39.75 5.14L39.75 5.14Q39.77 4.73 39.77 4.35L39.77 4.35L39.77 4.35Q39.77 4.24 39.76 4.14L39.76 4.14L39.76 4.14Q39.76 4.05 39.76 3.94L39.76 3.94L39.76 3.94Q39.76 3.86 39.80 3.80L39.80 3.80L39.80 3.80Q39.85 3.74 39.92 3.73L39.92 3.73L40.00 3.73L40.00 3.73Q40.07 3.73 40.28 3.75L40.28 3.75L40.28 3.75Q40.30 3.68 40.34 3.66L40.34 3.66L40.34 3.66Q40.36 3.64 40.37 3.64L40.37 3.64L40.37 3.64Q40.43 3.64 40.47 3.67L40.47 3.67L40.47 3.67Q40.50 3.69 40.52 3.71L40.52 3.71L40.52 3.71Q40.52 3.73 40.52 3.74L40.52 3.74L40.52 3.74Q40.53 3.76 40.54 3.80L40.54 3.80L40.54 3.80Q40.60 3.81 40.63 3.83L40.63 3.83L40.63 3.83Q40.65 3.84 40.67 3.86L40.67 3.86L40.67 3.86Q40.69 3.88 40.71 3.88L40.71 3.88L40.73 3.92L40.73 3.92Q40.75 3.96 40.77 4.08L40.77 4.08L40.77 4.08Q40.82 4.18 40.83 4.22L40.83 4.22L40.83 4.22Q40.84 4.25 40.84 4.26L40.84 4.26L40.84 4.26Q40.84 4.27 40.84 4.29L40.84 4.29L40.84 4.29Q40.84 4.31 40.85 4.32L40.85 4.32L40.85 4.32Q40.85 4.33 40.85 4.35L40.85 4.35ZM51.63 9.50L51.63 9.50L51.63 9.50Q51.64 9.73 51.59 10.08L51.59 10.08L51.59 10.08Q51.54 10.42 51.48 10.82L51.48 10.82L51.48 10.82Q51.42 11.21 51.37 11.62L51.37 11.62L51.37 11.62Q51.31 12.03 51.31 12.39L51.31 12.39L51.31 12.39Q51.31 12.63 51.34 12.85L51.34 12.85L51.34 12.85Q51.38 13.06 51.46 13.22L51.46 13.22L51.46 13.22Q51.51 13.31 51.51 13.38L51.51 13.38L51.51 13.38Q51.52 13.45 51.50 13.50L51.50 13.50L51.50 13.50Q51.49 13.55 51.47 13.59L51.47 13.59L51.47 13.59Q51.46 13.62 51.47 13.66L51.47 13.66L51.47 13.66Q51.49 13.69 51.47 13.74L51.47 13.74L51.47 13.74Q51.45 13.78 51.41 13.82L51.41 13.82L51.41 13.82Q51.37 13.86 51.31 13.87L51.31 13.87L51.31 13.87Q51.26 13.89 51.22 13.86L51.22 13.86L51.22 13.86Q51.15 13.82 51.10 13.81L51.10 13.81L51.10 13.81Q51.06 13.80 51.03 13.81L51.03 13.81L51.03 13.81Q51.00 13.82 50.97 13.84L50.97 13.84L50.97 13.84Q50.95 13.85 50.91 13.84L50.91 13.84L50.91 13.84Q50.80 13.77 50.66 13.69L50.66 13.69L50.66 13.69Q50.52 13.61 50.48 13.51L50.48 13.51L50.48 13.51Q50.46 13.47 50.43 13.38L50.43 13.38L50.43 13.38Q50.41 13.28 50.39 13.15L50.39 13.15L50.39 13.15Q50.37 13.02 50.36 12.87L50.36 12.87L50.36 12.87Q50.35 12.72 50.34 12.58L50.34 12.58L50.34 12.58Q50.11 13.00 49.86 13.28L49.86 13.28L49.86 13.28Q49.60 13.56 49.35 13.73L49.35 13.73L49.35 13.73Q49.09 13.90 48.84 13.97L48.84 13.97L48.84 13.97Q48.59 14.03 48.38 14.03L48.38 14.03L48.38 14.03Q48.17 14.03 48.01 13.98L48.01 13.98L48.01 13.98Q47.85 13.92 47.76 13.85L47.76 13.85L47.76 13.85Q47.43 13.51 47.29 13.31L47.29 13.31L47.29 13.31Q47.15 13.10 47.16 12.97L47.16 12.97L47.16 12.97Q47.20 12.53 47.37 12.16L47.37 12.16L47.37 12.16Q47.55 11.79 47.82 11.48L47.82 11.48L47.82 11.48Q48.08 11.17 48.42 10.92L48.42 10.92L48.42 10.92Q48.75 10.67 49.09 10.48L49.09 10.48L49.09 10.48Q49.44 10.28 49.77 10.15L49.77 10.15L49.77 10.15Q50.11 10.01 50.38 9.93L50.38 9.93L50.38 9.93Q50.37 9.56 50.35 9.29L50.35 9.29L50.35 9.29Q50.33 9.01 50.30 8.88L50.30 8.88L50.30 8.88Q50.20 8.46 49.98 8.25L49.98 8.25L49.98 8.25Q49.77 8.04 49.47 8.04L49.47 8.04L49.47 8.04Q49.28 8.04 49.09 8.18L49.09 8.18L49.09 8.18Q48.89 8.33 48.73 8.57L48.73 8.57L48.73 8.57Q48.58 8.82 48.48 9.14L48.48 9.14L48.48 9.14Q48.38 9.46 48.37 9.82L48.37 9.82L48.37 9.82Q48.37 9.91 48.38 9.99L48.38 9.99L48.38 9.99Q48.38 10.07 48.40 10.16L48.40 10.16L48.40 10.16Q48.41 10.21 48.37 10.23L48.37 10.23L48.37 10.23Q48.33 10.25 48.28 10.26L48.28 10.26L48.28 10.26Q48.22 10.27 48.16 10.27L48.16 10.27L48.16 10.27Q48.10 10.28 48.06 10.29L48.06 10.29L48.06 10.29Q48.02 10.31 48.00 10.31L48.00 10.31L48.00 10.31Q47.98 10.32 47.96 10.31L47.96 10.31L47.96 10.31Q47.94 10.29 47.91 10.27L47.91 10.27L47.91 10.27Q47.88 10.24 47.82 10.20L47.82 10.20L47.82 10.20Q47.77 10.16 47.71 10.13L47.71 10.13L47.71 10.13Q47.65 10.10 47.61 10.08L47.61 10.08L47.61 10.08Q47.56 10.06 47.53 10.05L47.53 10.05L47.53 10.05Q47.50 10.03 47.50 10.00L47.50 10.00L47.50 10.00Q47.50 9.58 47.69 9.13L47.69 9.13L47.69 9.13Q47.88 8.67 48.20 8.30L48.20 8.30L48.20 8.30Q48.51 7.93 48.94 7.69L48.94 7.69L48.94 7.69Q49.36 7.45 49.83 7.45L49.83 7.45L49.83 7.45Q50.21 7.45 50.49 7.57L50.49 7.57L50.49 7.57Q50.77 7.68 50.97 7.87L50.97 7.87L50.97 7.87Q51.17 8.05 51.29 8.28L51.29 8.28L51.29 8.28Q51.42 8.50 51.49 8.73L51.49 8.73L51.49 8.73Q51.56 8.96 51.59 9.16L51.59 9.16L51.59 9.16Q51.63 9.37 51.63 9.50ZM50.39 11.39L50.39 10.71L50.39 10.71Q50.19 10.79 49.94 10.91L49.94 10.91L49.94 10.91Q49.70 11.03 49.44 11.20L49.44 11.20L49.44 11.20Q49.19 11.37 48.94 11.59L48.94 11.59L48.94 11.59Q48.69 11.81 48.47 12.07L48.47 12.07L48.47 12.07Q48.21 12.38 48.09 12.62L48.09 12.62L48.09 12.62Q47.97 12.86 47.95 13.03L47.95 13.03L47.95 13.03Q47.92 13.19 47.96 13.29L47.96 13.29L47.96 13.29Q48.00 13.38 48.06 13.41L48.06 13.41L48.06 13.41Q48.27 13.49 48.50 13.42L48.50 13.42L48.50 13.42Q48.73 13.36 48.96 13.19L48.96 13.19L48.96 13.19Q49.18 13.02 49.40 12.79L49.40 12.79L49.40 12.79Q49.62 12.55 49.81 12.30L49.81 12.30L49.81 12.30Q50.00 12.05 50.15 11.81L50.15 11.81L50.15 11.81Q50.30 11.57 50.39 11.39L50.39 11.39ZM56.92 13.21L56.92 13.21L56.92 13.21Q56.92 13.29 56.86 13.39L56.86 13.39L56.86 13.39Q56.81 13.49 56.70 13.49L56.70 13.49L56.70 13.49Q56.64 13.49 56.60 13.45L56.60 13.45L56.60 13.45Q56.57 13.42 56.53 13.42L56.53 13.42L56.53 13.42Q56.49 13.42 56.44 13.45L56.44 13.45L56.44 13.45Q56.40 13.49 56.29 13.49L56.29 13.49L56.29 13.49Q56.16 13.49 56.06 13.39L56.06 13.39L56.06 13.39Q55.96 13.29 55.90 13.14L55.90 13.14L55.90 13.14Q55.84 12.98 55.81 12.80L55.81 12.80L55.81 12.80Q55.77 12.62 55.77 12.46L55.77 12.46L55.77 12.46Q55.77 12.15 55.80 11.76L55.80 11.76L55.80 11.76Q55.82 11.37 55.85 10.95L55.85 10.95L55.85 10.95Q55.88 10.54 55.91 10.13L55.91 10.13L55.91 10.13Q55.93 9.72 55.93 9.37L55.93 9.37L55.93 9.37Q55.93 8.91 55.87 8.65L55.87 8.65L55.87 8.65Q55.81 8.39 55.65 8.39L55.65 8.39L55.65 8.39Q55.50 8.41 55.34 8.65L55.34 8.65L55.34 8.65Q55.19 8.89 55.02 9.26L55.02 9.26L55.02 9.26Q54.86 9.63 54.70 10.10L54.70 10.10L54.70 10.10Q54.54 10.57 54.40 11.06L54.40 11.06L54.40 11.06Q54.25 11.55 54.12 12.01L54.12 12.01L54.12 12.01Q53.99 12.47 53.89 12.83L53.89 12.83L53.89 12.83Q53.79 13.19 53.71 13.42L53.71 13.42L53.71 13.42Q53.63 13.64 53.61 13.64L53.61 13.64L53.61 13.64Q53.55 13.64 53.53 13.61L53.53 13.61L53.53 13.61Q53.50 13.59 53.47 13.56L53.47 13.56L53.47 13.56Q53.45 13.54 53.42 13.51L53.42 13.51L53.42 13.51Q53.38 13.49 53.31 13.49L53.31 13.49L53.31 13.49Q53.25 13.49 53.23 13.50L53.23 13.50L53.23 13.50Q53.21 13.51 53.18 13.54L53.18 13.54L53.18 13.54Q53.16 13.56 53.12 13.57L53.12 13.57L53.12 13.57Q53.07 13.58 52.97 13.58L52.97 13.58L52.97 13.58Q52.85 13.58 52.73 13.52L52.73 13.52L52.73 13.52Q52.61 13.46 52.61 13.33L52.61 13.33L52.61 13.33Q52.61 13.25 52.64 12.99L52.64 12.99L52.64 12.99Q52.66 12.74 52.70 12.36L52.70 12.36L52.70 12.36Q52.74 11.99 52.78 11.53L52.78 11.53L52.78 11.53Q52.83 11.07 52.87 10.58L52.87 10.58L52.87 10.58Q52.90 10.08 52.93 9.59L52.93 9.59L52.93 9.59Q52.96 9.10 52.96 8.65L52.96 8.65L52.96 8.65Q52.96 8.44 52.95 8.25L52.95 8.25L52.95 8.25Q52.94 8.06 52.94 7.89L52.94 7.89L52.94 7.89Q52.94 7.85 52.99 7.85L52.99 7.85L52.99 7.85Q53.07 7.85 53.11 7.88L53.11 7.88L53.11 7.88Q53.16 7.91 53.18 7.94L53.18 7.94L53.18 7.94Q53.20 7.98 53.20 8.01L53.20 8.01L53.20 8.01Q53.20 8.04 53.21 8.04L53.21 8.04L53.21 8.04Q53.23 8.04 53.26 8.02L53.26 8.02L53.26 8.02Q53.29 7.99 53.32 7.96L53.32 7.96L53.32 7.96Q53.35 7.94 53.38 7.91L53.38 7.91L53.38 7.91Q53.40 7.89 53.42 7.89L53.42 7.89L53.49 7.89L53.49 7.89Q53.59 7.89 53.63 7.86L53.63 7.86L53.63 7.86Q53.68 7.83 53.69 7.79L53.69 7.79L53.69 7.79Q53.71 7.75 53.72 7.72L53.72 7.72L53.72 7.72Q53.72 7.69 53.76 7.69L53.76 7.69L53.76 7.69Q53.78 7.69 53.82 7.72L53.82 7.72L53.82 7.72Q53.85 7.75 53.89 7.82L53.89 7.82L53.89 7.82Q53.93 7.90 53.96 8.01L53.96 8.01L53.96 8.01Q53.98 8.13 53.98 8.29L53.98 8.29L53.98 8.29Q53.98 8.51 53.97 8.85L53.97 8.85L53.97 8.85Q53.95 9.18 53.93 9.56L53.93 9.56L53.93 9.56Q53.90 9.94 53.88 10.33L53.88 10.33L53.88 10.33Q53.86 10.71 53.85 11.03L53.85 11.03L53.85 11.03Q53.93 10.73 54.03 10.37L54.03 10.37L54.03 10.37Q54.14 10.01 54.28 9.65L54.28 9.65L54.28 9.65Q54.42 9.28 54.58 8.92L54.58 8.92L54.58 8.92Q54.75 8.57 54.94 8.30L54.94 8.30L54.94 8.30Q55.13 8.03 55.34 7.86L55.34 7.86L55.34 7.86Q55.56 7.69 55.79 7.69L55.79 7.69L55.79 7.69Q56.16 7.69 56.39 7.83L56.39 7.83L56.39 7.83Q56.63 7.96 56.77 8.20L56.77 8.20L56.77 8.20Q56.90 8.44 56.95 8.76L56.95 8.76L56.95 8.76Q57.00 9.08 57.00 9.45L57.00 9.45L57.00 9.45Q57.00 9.77 56.98 10.11L56.98 10.11L56.98 10.11Q56.95 10.46 56.92 10.80L56.92 10.80L56.92 10.80Q56.89 11.15 56.86 11.48L56.86 11.48L56.86 11.48Q56.84 11.82 56.84 12.11L56.84 12.11L56.84 12.11Q56.84 12.48 56.88 12.77L56.88 12.77L56.88 12.77Q56.92 13.06 56.92 13.21ZM63.96 4.86L63.96 4.86L63.96 4.86Q63.96 5.00 63.92 5.29L63.92 5.29L63.92 5.29Q63.89 5.58 63.84 5.97L63.84 5.97L63.84 5.97Q63.79 6.36 63.73 6.85L63.73 6.85L63.73 6.85Q63.68 7.33 63.63 7.86L63.63 7.86L63.63 7.86Q63.58 8.39 63.55 8.94L63.55 8.94L63.55 8.94Q63.52 9.50 63.52 10.06L63.52 10.06L63.52 10.06Q63.52 10.34 63.53 10.71L63.53 10.71L63.53 10.71Q63.55 11.07 63.56 11.44L63.56 11.44L63.56 11.44Q63.58 11.81 63.60 12.17L63.60 12.17L63.60 12.17Q63.62 12.53 63.64 12.82L63.64 12.82L63.64 12.82Q63.65 13.10 63.65 13.29L63.65 13.29L63.65 13.29Q63.65 13.47 63.63 13.50L63.63 13.50L63.63 13.50Q63.59 13.54 63.54 13.54L63.54 13.54L63.54 13.54Q63.49 13.54 63.43 13.52L63.43 13.52L63.43 13.52Q63.38 13.51 63.32 13.51L63.32 13.51L63.32 13.51Q63.27 13.50 63.25 13.53L63.25 13.53L63.25 13.53Q63.24 13.56 63.21 13.60L63.21 13.60L63.21 13.60Q63.17 13.64 63.13 13.67L63.13 13.67L63.13 13.67Q63.08 13.70 63.02 13.71L63.02 13.71L63.02 13.71Q62.96 13.73 62.89 13.70L62.89 13.70L62.89 13.70Q62.77 13.63 62.68 13.50L62.68 13.50L62.68 13.50Q62.58 13.38 62.56 13.18L62.56 13.18L62.56 13.18Q62.54 13.04 62.52 12.86L62.52 12.86L62.52 12.86Q62.51 12.67 62.51 12.46L62.51 12.46L62.51 12.46Q62.50 12.24 62.50 12.01L62.50 12.01L62.50 12.01Q62.49 11.79 62.49 11.57L62.49 11.57L62.49 11.57Q62.33 12.02 62.10 12.38L62.10 12.38L62.10 12.38Q61.88 12.74 61.62 13.00L61.62 13.00L61.62 13.00Q61.35 13.25 61.07 13.42L61.07 13.42L61.07 13.42Q60.78 13.58 60.50 13.64L60.50 13.64L60.50 13.64Q60.13 13.71 59.73 13.63L59.73 13.63L59.73 13.63Q59.33 13.54 58.98 13.34L58.98 13.34L58.98 13.34Q58.64 13.14 58.39 12.84L58.39 12.84L58.39 12.84Q58.13 12.54 58.06 12.18L58.06 12.18L58.06 12.18Q58.00 11.93 57.98 11.69L57.98 11.69L57.98 11.69Q57.96 11.45 57.96 11.23L57.96 11.23L57.96 11.23Q57.96 10.65 58.11 10.18L58.11 10.18L58.11 10.18Q58.25 9.71 58.47 9.33L58.47 9.33L58.47 9.33Q58.70 8.96 58.97 8.69L58.97 8.69L58.97 8.69Q59.24 8.42 59.49 8.23L59.49 8.23L59.49 8.23Q59.75 8.05 59.94 7.95L59.94 7.95L59.94 7.95Q60.14 7.85 60.23 7.83L60.23 7.83L60.23 7.83Q60.40 7.79 60.56 7.77L60.56 7.77L60.56 7.77Q60.72 7.76 60.87 7.76L60.87 7.76L60.87 7.76Q61.17 7.76 61.43 7.82L61.43 7.82L61.43 7.82Q61.69 7.88 61.91 7.98L61.91 7.98L61.91 7.98Q62.13 8.07 62.29 8.19L62.29 8.19L62.29 8.19Q62.46 8.31 62.58 8.41L62.58 8.41L62.58 8.41Q62.60 8.00 62.62 7.59L62.62 7.59L62.62 7.59Q62.64 7.18 62.67 6.81L62.67 6.81L62.67 6.81Q62.69 6.44 62.72 6.13L62.72 6.13L62.72 6.13Q62.74 5.81 62.77 5.59L62.77 5.59L62.77 5.59Q62.83 5.22 62.88 4.96L62.88 4.96L62.88 4.96Q62.93 4.69 62.98 4.49L62.98 4.49L62.98 4.49Q63.03 4.30 63.09 4.16L63.09 4.16L63.09 4.16Q63.14 4.03 63.18 3.92L63.18 3.92L63.18 3.92Q63.21 3.90 63.28 3.89L63.28 3.89L63.28 3.89Q63.34 3.89 63.42 3.91L63.42 3.91L63.42 3.91Q63.51 3.92 63.59 3.96L63.59 3.96L63.59 3.96Q63.68 3.99 63.76 4.04L63.76 4.04L63.76 4.04Q63.83 4.09 63.88 4.14L63.88 4.14L63.88 4.14Q63.92 4.20 63.95 4.29L63.95 4.29L63.95 4.29Q63.98 4.38 63.98 4.51L63.98 4.51L63.98 4.51Q63.98 4.65 63.96 4.86ZM62.48 9.37L62.48 9.37L62.48 9.37Q62.48 9.28 62.49 9.18L62.49 9.18L62.49 9.18Q62.49 9.07 62.51 8.98L62.51 8.98L62.51 8.98Q62.45 9.02 62.41 9.06L62.41 9.06L62.41 9.06Q62.36 9.10 62.34 9.13L62.34 9.13L62.34 9.13Q62.19 9.30 62.14 9.32L62.14 9.32L62.14 9.32Q62.08 9.34 62.02 9.28L62.02 9.28L62.02 9.28Q61.56 8.81 61.13 8.64L61.13 8.64L61.13 8.64Q60.70 8.48 60.35 8.48L60.35 8.48L60.35 8.48Q60.12 8.48 59.95 8.53L59.95 8.53L59.95 8.53Q59.77 8.58 59.67 8.64L59.67 8.64L59.67 8.64Q59.49 8.75 59.34 8.97L59.34 8.97L59.34 8.97Q59.19 9.19 59.08 9.48L59.08 9.48L59.08 9.48Q58.97 9.77 58.92 10.10L58.92 10.10L58.92 10.10Q58.86 10.43 58.86 10.76L58.86 10.76L58.86 10.76Q58.86 11.11 58.93 11.43L58.93 11.43L58.93 11.43Q59.00 11.75 59.16 12.00L59.16 12.00L59.16 12.00Q59.32 12.24 59.57 12.38L59.57 12.38L59.57 12.38Q59.82 12.52 60.18 12.51L60.18 12.51L60.18 12.51Q60.58 12.49 60.90 12.32L60.90 12.32L60.90 12.32Q61.23 12.15 61.49 11.88L61.49 11.88L61.49 11.88Q61.74 11.61 61.93 11.28L61.93 11.28L61.93 11.28Q62.11 10.94 62.23 10.60L62.23 10.60L62.23 10.60Q62.36 10.26 62.42 9.94L62.42 9.94L62.42 9.94Q62.48 9.62 62.48 9.37Z"></path></g><!----><!----></svg>